<svg xmlns="http://www.w3.org/2000/svg" viewBox="0 0 820 472" width="820" height="472" font-family="Helvetica, Arial, sans-serif">
  <title>Replacing the solver library: lines touched in the tangled script and in a modular design</title>
  <defs>
    <marker id="arrow" viewBox="0 0 10 10" refX="9" refY="5" markerWidth="7" markerHeight="7" orient="auto-start-reverse"><path d="M0,0 L10,5 L0,10 z" fill="#52606d"/></marker>
    <marker id="hollow" viewBox="0 0 12 12" refX="11" refY="6" markerWidth="10" markerHeight="10" orient="auto"><path d="M1,1 L11,6 L1,11 z" fill="#ffffff" stroke="#52606d" stroke-width="1.2"/></marker>
  </defs>
  <rect width="820" height="472" fill="#ffffff"/>
  <line x1="430" y1="20" x2="430" y2="452" stroke="#e4e7eb" stroke-width="2"/>
  <text x="215" y="34" text-anchor="middle" font-size="16" fill="#1f2933" font-weight="bold">Tangled: the change is scattered</text>
  <text x="630" y="34" text-anchor="middle" font-size="16" fill="#1f2933" font-weight="bold">Modular: the change stays in one box</text>
  <text x="215" y="54" text-anchor="middle" font-size="12" fill="#52606d" font-weight="normal">each bar is one line of the script</text>
  <rect x="80.0" y="70" width="211.2" height="6" rx="2" fill="#cbd2d9"/>
  <rect x="92.8" y="79" width="54.4" height="6" rx="2" fill="#cbd2d9"/>
  <rect x="92.8" y="88" width="41.6" height="6" rx="2" fill="#cbd2d9"/>
  <rect x="92.8" y="97" width="108.8" height="6" rx="2" fill="#cbd2d9"/>
  <rect x="105.6" y="106" width="185.6" height="6" rx="2" fill="#cbd2d9"/>
  <rect x="179.2" y="115" width="147.2" height="6" rx="2" fill="#cbd2d9"/>
  <rect x="179.2" y="124" width="166.4" height="6" rx="2" fill="#cbd2d9"/>
  <rect x="92.8" y="133" width="118.4" height="6" rx="2" fill="#cbd2d9"/>
  <rect x="92.8" y="142" width="73.6" height="6" rx="2" fill="#cbd2d9"/>
  <rect x="92.8" y="151" width="73.6" height="6" rx="2" fill="#cbd2d9"/>
  <rect x="92.8" y="169" width="89.6" height="6" rx="2" fill="#cbd2d9"/>
  <rect x="92.8" y="178" width="166.4" height="6" rx="2" fill="#cbd2d9"/>
  <rect x="105.6" y="187" width="214.4" height="6" rx="2" fill="#cbd2d9"/>
  <rect x="105.6" y="196" width="19.2" height="6" rx="2" fill="#cbd2d9"/>
  <rect x="92.8" y="205" width="166.4" height="6" rx="2" fill="#cbd2d9"/>
  <rect x="105.6" y="214" width="214.4" height="6" rx="2" fill="#cbd2d9"/>
  <rect x="105.6" y="223" width="19.2" height="6" rx="2" fill="#cbd2d9"/>
  <rect x="92.8" y="241" width="156.8" height="6" rx="2" fill="#cbd2d9"/>
  <rect x="92.8" y="250" width="214.4" height="6" rx="2" fill="#cbd2d9"/>
  <rect x="92.8" y="268" width="86.4" height="6" rx="2" fill="#cbd2d9"/>
  <rect x="92.8" y="277" width="67.2" height="6" rx="2" fill="#c2410c"/>
  <rect x="92.8" y="286" width="19.2" height="6" rx="2" fill="#cbd2d9"/>
  <rect x="92.8" y="295" width="57.6" height="6" rx="2" fill="#cbd2d9"/>
  <rect x="105.6" y="304" width="220.8" height="6" rx="2" fill="#c2410c"/>
  <rect x="92.8" y="313" width="224.0" height="6" rx="2" fill="#c2410c"/>
  <rect x="92.8" y="322" width="224.0" height="6" rx="2" fill="#c2410c"/>
  <rect x="92.8" y="331" width="192.0" height="6" rx="2" fill="#c2410c"/>
  <rect x="92.8" y="340" width="83.2" height="6" rx="2" fill="#c2410c"/>
  <rect x="92.8" y="358" width="51.2" height="6" rx="2" fill="#cbd2d9"/>
  <rect x="92.8" y="367" width="112.0" height="6" rx="2" fill="#cbd2d9"/>
  <rect x="92.8" y="376" width="57.6" height="6" rx="2" fill="#cbd2d9"/>
  <rect x="105.6" y="385" width="83.2" height="6" rx="2" fill="#c2410c"/>
  <rect x="105.6" y="394" width="204.8" height="6" rx="2" fill="#cbd2d9"/>
  <rect x="92.8" y="403" width="128.0" height="6" rx="2" fill="#cbd2d9"/>
  <text x="215" y="450" text-anchor="middle" font-size="14" fill="#9a3412" font-weight="normal">7 lines in two places change</text>
  <rect x="530" y="75" width="200" height="44" rx="6" fill="#dbe7f1" stroke="#2f6f9f" stroke-width="1.5"/>
  <text x="630.0" y="101.9" text-anchor="middle" font-size="14" fill="#1f2933" font-weight="normal">Input</text>
  <rect x="530" y="137" width="200" height="44" rx="6" fill="#dbe7f1" stroke="#2f6f9f" stroke-width="1.5"/>
  <text x="630.0" y="163.9" text-anchor="middle" font-size="14" fill="#1f2933" font-weight="normal">Rules</text>
  <line x1="630" y1="119" x2="630" y2="135" stroke="#52606d" stroke-width="1.6" marker-end="url(#arrow)"/>
  <rect x="530" y="199" width="200" height="44" rx="6" fill="#dbe7f1" stroke="#2f6f9f" stroke-width="1.5"/>
  <text x="630.0" y="225.9" text-anchor="middle" font-size="14" fill="#1f2933" font-weight="normal">Preprocess</text>
  <line x1="630" y1="181" x2="630" y2="197" stroke="#52606d" stroke-width="1.6" marker-end="url(#arrow)"/>
  <rect x="530" y="261" width="200" height="44" rx="6" fill="#fde2d0" stroke="#c2410c" stroke-width="2"/>
  <text x="630.0" y="287.9" text-anchor="middle" font-size="14" fill="#9a3412" font-weight="bold">Optimize</text>
  <line x1="630" y1="243" x2="630" y2="259" stroke="#52606d" stroke-width="1.6" marker-end="url(#arrow)"/>
  <rect x="530" y="323" width="200" height="44" rx="6" fill="#dbe7f1" stroke="#2f6f9f" stroke-width="1.5"/>
  <text x="630.0" y="349.9" text-anchor="middle" font-size="14" fill="#1f2933" font-weight="normal">Output</text>
  <line x1="630" y1="305" x2="630" y2="321" stroke="#52606d" stroke-width="1.6" marker-end="url(#arrow)"/>
  <text x="630" y="450" text-anchor="middle" font-size="14" fill="#9a3412" font-weight="normal">one box changes</text>
</svg>
