<svg xmlns="http://www.w3.org/2000/svg" viewBox="0 0 860 400" width="860" height="400" font-family="Helvetica, Arial, sans-serif">
  <title>Figure: tangled and grouped</title>
  <defs>
    <marker id="arrow" viewBox="0 0 10 10" refX="9" refY="5" markerWidth="7" markerHeight="7" orient="auto-start-reverse"><path d="M0,0 L10,5 L0,10 z" fill="#52606d"/></marker>
    <marker id="open" viewBox="0 0 10 10" refX="9" refY="5" markerWidth="8" markerHeight="8" orient="auto"><path d="M0,0 L10,5 L0,10" fill="none" stroke="#52606d" stroke-width="1.4"/></marker>
    <marker id="hollow" viewBox="0 0 12 12" refX="11" refY="6" markerWidth="11" markerHeight="11" orient="auto"><path d="M1,1 L11,6 L1,11 z" fill="#ffffff" stroke="#52606d" stroke-width="1.2"/></marker>
  </defs>
  <rect width="860" height="400" fill="#ffffff"/>
  <line x1="430" y1="20" x2="430" y2="380" stroke="#e4e7eb" stroke-width="2"/>
  <text x="215" y="34" text-anchor="middle" font-size="16" fill="#1f2933" font-weight="bold" xml:space="preserve">Without: low cohesion, high coupling</text>
  <text x="645" y="34" text-anchor="middle" font-size="16" fill="#1f2933" font-weight="bold" xml:space="preserve">With: high cohesion, low coupling</text>
  <line x1="70" y1="90" x2="360" y2="190" stroke="#9aa5b1" stroke-width="1.5"/>
  <line x1="300" y1="80" x2="90" y2="250" stroke="#9aa5b1" stroke-width="1.5"/>
  <line x1="300" y1="80" x2="380" y2="300" stroke="#9aa5b1" stroke-width="1.5"/>
  <line x1="300" y1="80" x2="110" y2="330" stroke="#9aa5b1" stroke-width="1.5"/>
  <line x1="190" y1="160" x2="360" y2="190" stroke="#9aa5b1" stroke-width="1.5"/>
  <line x1="190" y1="160" x2="90" y2="250" stroke="#9aa5b1" stroke-width="1.5"/>
  <line x1="190" y1="160" x2="250" y2="330" stroke="#9aa5b1" stroke-width="1.5"/>
  <line x1="190" y1="160" x2="60" y2="170" stroke="#9aa5b1" stroke-width="1.5"/>
  <line x1="190" y1="160" x2="290" y2="250" stroke="#9aa5b1" stroke-width="1.5"/>
  <line x1="300" y1="80" x2="180" y2="70" stroke="#9aa5b1" stroke-width="1.5"/>
  <line x1="380" y1="300" x2="180" y2="70" stroke="#9aa5b1" stroke-width="1.5"/>
  <line x1="150" y1="340" x2="290" y2="250" stroke="#9aa5b1" stroke-width="1.5"/>
  <line x1="290" y1="250" x2="110" y2="330" stroke="#9aa5b1" stroke-width="1.5"/>
  <line x1="60" y1="170" x2="250" y2="330" stroke="#9aa5b1" stroke-width="1.5"/>
  <line x1="70" y1="90" x2="300" y2="80" stroke="#9aa5b1" stroke-width="1.5"/>
  <line x1="380" y1="300" x2="150" y2="340" stroke="#9aa5b1" stroke-width="1.5"/>
  <line x1="360" y1="190" x2="60" y2="170" stroke="#9aa5b1" stroke-width="1.5"/>
  <line x1="180" y1="70" x2="110" y2="330" stroke="#9aa5b1" stroke-width="1.5"/>
  <circle cx="70" cy="90" r="11" fill="#2f6f9f"/>
  <circle cx="300" cy="80" r="11" fill="#2f6f9f"/>
  <circle cx="190" cy="160" r="11" fill="#2f6f9f"/>
  <circle cx="360" cy="190" r="11" fill="#c2410c"/>
  <circle cx="90" cy="250" r="11" fill="#c2410c"/>
  <circle cx="250" cy="330" r="11" fill="#b7791f"/>
  <circle cx="380" cy="300" r="11" fill="#2f855a"/>
  <circle cx="150" cy="340" r="11" fill="#2f855a"/>
  <circle cx="60" cy="170" r="11" fill="#2f855a"/>
  <circle cx="290" cy="250" r="11" fill="#2f855a"/>
  <circle cx="180" cy="70" r="11" fill="#52606d"/>
  <circle cx="110" cy="330" r="11" fill="#52606d"/>
  <rect x="455" y="60" width="175" height="120" rx="8" fill="#dbe7f1" stroke="#2f6f9f" stroke-width="1.5"/>
  <text x="465" y="80" text-anchor="start" font-size="13" fill="#2f6f9f" font-weight="bold" xml:space="preserve">Input</text>
  <rect x="655" y="60" width="180" height="120" rx="8" fill="#fde2d0" stroke="#c2410c" stroke-width="1.5"/>
  <text x="665" y="80" text-anchor="start" font-size="13" fill="#c2410c" font-weight="bold" xml:space="preserve">Rules</text>
  <rect x="455" y="205" width="120" height="80" rx="8" fill="#fcefc7" stroke="#b7791f" stroke-width="1.5"/>
  <text x="465" y="225" text-anchor="start" font-size="13" fill="#b7791f" font-weight="bold" xml:space="preserve">Preprocess</text>
  <rect x="600" y="205" width="235" height="165" rx="8" fill="#d9f0e1" stroke="#2f855a" stroke-width="1.5"/>
  <text x="610" y="225" text-anchor="start" font-size="13" fill="#2f855a" font-weight="bold" xml:space="preserve">Optimize</text>
  <rect x="455" y="305" width="120" height="65" rx="8" fill="#e4e7eb" stroke="#52606d" stroke-width="1.5"/>
  <text x="465" y="325" text-anchor="start" font-size="13" fill="#52606d" font-weight="bold" xml:space="preserve">Output</text>
  <line x1="500" y1="105" x2="590" y2="105" stroke="#9aa5b1" stroke-width="1.5"/>
  <line x1="590" y1="105" x2="545" y2="150" stroke="#9aa5b1" stroke-width="1.5"/>
  <line x1="705" y1="120" x2="790" y2="120" stroke="#9aa5b1" stroke-width="1.5"/>
  <line x1="660" y1="255" x2="775" y2="255" stroke="#9aa5b1" stroke-width="1.5"/>
  <line x1="775" y1="255" x2="775" y2="330" stroke="#9aa5b1" stroke-width="1.5"/>
  <line x1="660" y1="330" x2="775" y2="330" stroke="#9aa5b1" stroke-width="1.5"/>
  <line x1="660" y1="255" x2="660" y2="330" stroke="#9aa5b1" stroke-width="1.5"/>
  <line x1="485" y1="345" x2="545" y2="345" stroke="#9aa5b1" stroke-width="1.5"/>
  <line x1="630" y1="120" x2="655" y2="120" stroke="#52606d" stroke-width="1.6" marker-end="url(#arrow)"/>
  <line x1="545" y1="180" x2="545" y2="205" stroke="#52606d" stroke-width="1.6" marker-end="url(#arrow)"/>
  <line x1="575" y1="255" x2="600" y2="255" stroke="#52606d" stroke-width="1.6" marker-end="url(#arrow)"/>
  <line x1="600" y1="340" x2="575" y2="340" stroke="#52606d" stroke-width="1.6" marker-end="url(#arrow)"/>
  <circle cx="500" cy="105" r="11" fill="#2f6f9f"/>
  <circle cx="590" cy="105" r="11" fill="#2f6f9f"/>
  <circle cx="545" cy="150" r="11" fill="#2f6f9f"/>
  <circle cx="705" cy="120" r="11" fill="#c2410c"/>
  <circle cx="790" cy="120" r="11" fill="#c2410c"/>
  <circle cx="515" cy="255" r="11" fill="#b7791f"/>
  <circle cx="660" cy="255" r="11" fill="#2f855a"/>
  <circle cx="775" cy="255" r="11" fill="#2f855a"/>
  <circle cx="660" cy="330" r="11" fill="#2f855a"/>
  <circle cx="775" cy="330" r="11" fill="#2f855a"/>
  <circle cx="485" cy="345" r="11" fill="#52606d"/>
  <circle cx="545" cy="345" r="11" fill="#52606d"/>
  <text x="215" y="385" text-anchor="middle" font-size="14" fill="#9a3412" font-weight="normal" xml:space="preserve">Every piece reaches into the others</text>
</svg>
